<?xml version="1.0" encoding="iso-8859-1"?>
<!-- Generator: Adobe Illustrator 19.0.0, SVG Export Plug-In . SVG Version: 6.00 Build 0)  -->
<svg version="1.1" id="Capa_1" xmlns="http://www.w3.org/2000/svg" xmlns:xlink="http://www.w3.org/1999/xlink" x="0px" y="0px"
	 viewBox="0 0 59.947 59.947" style="enable-background:new 0 0 59.947 59.947;" xml:space="preserve">
<g>
	<path d="M36.847,49.238c0.027-0.065,0.042-0.133,0.062-0.2c0.017-0.058,0.039-0.113,0.051-0.173c0.051-0.258,0.051-0.525,0-0.783
		c-0.012-0.06-0.034-0.115-0.051-0.173c-0.02-0.067-0.035-0.135-0.062-0.2c-0.028-0.069-0.067-0.131-0.103-0.196
		c-0.027-0.049-0.049-0.101-0.081-0.148c-0.146-0.219-0.335-0.408-0.554-0.554c-0.05-0.034-0.105-0.057-0.158-0.086
		c-0.062-0.034-0.121-0.071-0.186-0.098c-0.067-0.028-0.137-0.044-0.206-0.064c-0.056-0.016-0.11-0.038-0.168-0.05
		c-0.129-0.026-0.26-0.039-0.392-0.039h-1.172l6.586-6.586c0.781-0.781,0.781-2.047,0-2.828c-0.78-0.781-2.048-0.781-2.828,0
		l-9.999,9.999c-0.094,0.093-0.177,0.196-0.251,0.307c-0.032,0.047-0.053,0.099-0.081,0.148c-0.036,0.065-0.075,0.127-0.103,0.196
		c-0.027,0.065-0.042,0.133-0.062,0.2c-0.017,0.058-0.039,0.113-0.051,0.173c-0.051,0.258-0.051,0.525,0,0.783
		c0.012,0.06,0.034,0.115,0.051,0.173c0.02,0.067,0.035,0.135,0.062,0.2c0.028,0.069,0.067,0.131,0.103,0.196
		c0.027,0.049,0.049,0.101,0.081,0.148c0.146,0.219,0.335,0.408,0.554,0.555c0.049,0.033,0.103,0.056,0.155,0.084
		c0.063,0.034,0.123,0.072,0.19,0.1c0.066,0.027,0.135,0.043,0.203,0.063c0.057,0.017,0.112,0.039,0.171,0.051
		c0.129,0.026,0.26,0.039,0.392,0.039h1.172l-3.586,3.586c-0.781,0.781-0.781,2.047,0,2.828c0.39,0.391,0.902,0.586,1.414,0.586
		s1.024-0.195,1.414-0.586l6.999-6.999c0.094-0.093,0.177-0.196,0.251-0.307c0.032-0.047,0.053-0.099,0.081-0.148
		C36.78,49.369,36.819,49.307,36.847,49.238z" fill="#FFFFFF"/>
	<path d="M50.586,33.059l-9.999,9.999c-0.094,0.093-0.177,0.196-0.251,0.307c-0.032,0.047-0.053,0.099-0.081,0.148
		c-0.036,0.065-0.075,0.127-0.103,0.196c-0.027,0.065-0.042,0.133-0.062,0.2c-0.017,0.058-0.039,0.113-0.051,0.173
		c-0.051,0.258-0.051,0.525,0,0.783c0.012,0.06,0.034,0.115,0.051,0.173c0.02,0.067,0.035,0.135,0.062,0.2
		c0.028,0.069,0.067,0.131,0.103,0.196c0.027,0.049,0.049,0.101,0.081,0.148c0.146,0.219,0.335,0.408,0.554,0.555
		c0.049,0.033,0.103,0.056,0.155,0.084c0.063,0.034,0.123,0.072,0.19,0.1c0.066,0.027,0.135,0.043,0.203,0.063
		c0.057,0.017,0.112,0.039,0.171,0.051c0.129,0.026,0.26,0.039,0.392,0.039h1.172l-3.586,3.586c-0.781,0.781-0.781,2.047,0,2.828
		c0.39,0.391,0.902,0.586,1.414,0.586s1.024-0.195,1.414-0.586l6.999-6.999c0.094-0.093,0.177-0.196,0.251-0.307
		c0.032-0.047,0.053-0.099,0.081-0.148c0.036-0.065,0.075-0.127,0.103-0.196c0.027-0.065,0.042-0.133,0.062-0.2
		c0.017-0.058,0.039-0.113,0.051-0.173c0.051-0.258,0.051-0.525,0-0.783c-0.012-0.06-0.034-0.115-0.051-0.173
		c-0.02-0.067-0.035-0.135-0.062-0.2c-0.028-0.069-0.067-0.131-0.103-0.196c-0.027-0.049-0.049-0.101-0.081-0.148
		c-0.147-0.22-0.335-0.408-0.555-0.555c-0.047-0.031-0.097-0.052-0.146-0.079c-0.065-0.036-0.129-0.076-0.199-0.105
		c-0.064-0.026-0.13-0.041-0.195-0.061c-0.059-0.018-0.116-0.041-0.178-0.053c-0.127-0.025-0.255-0.038-0.384-0.039
		c-0.002,0-0.005-0.001-0.007-0.001h-1.172l6.586-6.586c0.781-0.781,0.781-2.047,0-2.828S51.367,32.278,50.586,33.059z" fill="#FFFFFF"/>
	<path d="M53.897,14.98c-0.509-6.429-5.892-11.507-12.45-11.507c-3.737,0-7.084,1.657-9.374,4.266
		c-2.789-3.329-6.863-5.266-11.292-5.266c-8.157,0-14.793,6.636-14.793,14.793c0,3.391,1.145,6.569,3.194,9.142
		c-3.106,0.8-5.83,2.769-7.488,5.638c-3.403,5.887-1.521,13.569,4.195,17.125c0.329,0.205,0.694,0.302,1.055,0.302
		c0.668,0,1.321-0.335,1.7-0.944c0.583-0.938,0.296-2.171-0.642-2.755c-3.903-2.428-5.18-7.689-2.846-11.727
		c1.565-2.706,4.56-4.226,7.71-4.031c0.49,1.67,1.466,3.216,2.908,4.404c0.373,0.307,0.823,0.456,1.271,0.456
		c0.577,0,1.149-0.249,1.545-0.729c0.702-0.853,0.58-2.113-0.272-2.815c-2.128-1.752-2.434-4.91-0.681-7.038
		c0.903-1.097,2.192-1.72,3.548-1.803c-0.097,0.963-0.047,1.956,0.187,2.95c0.217,0.921,1.038,1.542,1.945,1.542
		c0.152,0,0.306-0.018,0.46-0.054c1.075-0.253,1.742-1.33,1.489-2.405c-0.306-1.3-0.087-2.642,0.616-3.777
		c0.703-1.136,1.806-1.93,3.106-2.235c1.302-0.306,2.642-0.087,3.777,0.616c1.136,0.703,1.93,1.806,2.235,3.106
		c0.253,1.076,1.332,1.74,2.405,1.489c1.075-0.253,1.742-1.33,1.489-2.405c-0.55-2.34-1.979-4.326-4.023-5.591
		c-0.586-0.363-1.206-0.646-1.842-0.863c0.546-4.164,4.109-7.391,8.419-7.391c4.202,0,7.692,3.067,8.371,7.079
		c-4.43,0.558-7.871,4.342-7.871,8.921c0,1.104,0.896,2,2,2s2-0.896,2-2c0-2.757,2.243-5,5-5s5,2.243,5,5c0,1.104,0.896,2,2,2
		s2-0.896,2-2C59.947,19.545,57.413,16.205,53.897,14.98z" fill="#FFFFFF"/>
</g>
<g>
</g>
<g>
</g>
<g>
</g>
<g>
</g>
<g>
</g>
<g>
</g>
<g>
</g>
<g>
</g>
<g>
</g>
<g>
</g>
<g>
</g>
<g>
</g>
<g>
</g>
<g>
</g>
<g>
</g>
</svg>
