<?xml version="1.0" encoding="iso-8859-1"?>
<!-- Generator: Adobe Illustrator 19.0.0, SVG Export Plug-In . SVG Version: 6.00 Build 0)  -->
<svg version="1.1" id="Capa_1" xmlns="http://www.w3.org/2000/svg" xmlns:xlink="http://www.w3.org/1999/xlink" x="0px" y="0px"
	 viewBox="0 0 59.947 59.947" style="enable-background:new 0 0 59.947 59.947;" xml:space="preserve">
<g>
	<path d="M4.104,28.763c-0.509,0.216-0.746,0.803-0.53,1.311c0.162,0.381,0.532,0.61,0.921,0.61c0.131,0,0.264-0.026,0.391-0.08
		l1.904-0.809c0.509-0.216,0.746-0.803,0.53-1.311c-0.216-0.509-0.808-0.745-1.312-0.53L4.104,28.763z" fill="#FFFFFF"/>
	<path d="M58.196,36.239c-0.277-0.479-0.89-0.643-1.366-0.366L54,37.507v-3.268c0-0.552-0.447-1-1-1s-1,0.448-1,1v3.268l-2.83-1.634
		c-0.478-0.276-1.09-0.112-1.366,0.366s-0.112,1.09,0.366,1.366L51,39.239l-2.83,1.634c-0.479,0.276-0.643,0.888-0.366,1.366
		c0.186,0.321,0.521,0.5,0.867,0.5c0.17,0,0.342-0.043,0.499-0.134L52,40.971v3.268c0,0.552,0.447,1,1,1s1-0.448,1-1v-3.268
		l2.83,1.634c0.157,0.091,0.329,0.134,0.499,0.134c0.346,0,0.682-0.179,0.867-0.5c0.276-0.479,0.112-1.09-0.366-1.366L55,39.239
		l2.83-1.634C58.309,37.329,58.473,36.718,58.196,36.239z" fill="#FFFFFF"/>
	<path d="M37.196,36.239c-0.277-0.479-0.89-0.643-1.366-0.366L33,37.507v-3.268c0-0.552-0.447-1-1-1s-1,0.448-1,1v3.268l-2.83-1.634
		c-0.478-0.276-1.09-0.112-1.366,0.366s-0.112,1.09,0.366,1.366L30,39.239l-2.83,1.634c-0.479,0.276-0.643,0.888-0.366,1.366
		c0.186,0.321,0.521,0.5,0.867,0.5c0.17,0,0.342-0.043,0.499-0.134L31,40.971v3.268c0,0.552,0.447,1,1,1s1-0.448,1-1v-3.268
		l2.83,1.634c0.157,0.091,0.329,0.134,0.499,0.134c0.346,0,0.682-0.179,0.867-0.5c0.276-0.479,0.112-1.09-0.366-1.366L34,39.239
		l2.83-1.634C37.309,37.329,37.473,36.718,37.196,36.239z" fill="#FFFFFF"/>
	<path d="M48.196,49.27c-0.277-0.479-0.89-0.643-1.366-0.366L44,50.538V47.27c0-0.552-0.447-1-1-1s-1,0.448-1,1v3.268l-2.83-1.634
		c-0.478-0.276-1.09-0.113-1.366,0.366c-0.276,0.479-0.112,1.09,0.366,1.366L41,52.27l-2.83,1.634
		c-0.479,0.276-0.643,0.888-0.366,1.366c0.186,0.321,0.521,0.5,0.867,0.5c0.17,0,0.342-0.043,0.499-0.134L42,54.003v3.268
		c0,0.552,0.447,1,1,1s1-0.448,1-1v-3.268l2.83,1.634c0.157,0.091,0.329,0.134,0.499,0.134c0.346,0,0.682-0.179,0.867-0.5
		c0.276-0.479,0.112-1.09-0.366-1.366L45,52.27l2.83-1.634C48.309,50.36,48.473,49.749,48.196,49.27z" fill="#FFFFFF"/>
	<path d="M1,23.677h4.138c0.553,0,1-0.448,1-1s-0.447-1-1-1H1c-0.553,0-1,0.448-1,1S0.447,23.677,1,23.677z" fill="#FFFFFF"/>
	<path d="M21,7.814c0.553,0,1-0.448,1-1V2.677c0-0.552-0.447-1-1-1s-1,0.448-1,1v4.138C20,7.367,20.447,7.814,21,7.814z" fill="#FFFFFF"/>
	<path d="M9.077,12.167c0.195,0.195,0.451,0.293,0.707,0.293s0.512-0.098,0.707-0.293c0.391-0.391,0.391-1.024,0-1.414L6.534,6.797
		c-0.391-0.391-1.023-0.391-1.414,0s-0.391,1.024,0,1.414L9.077,12.167z" fill="#FFFFFF"/>
	<path d="M13.881,8.466c0.162,0.381,0.532,0.61,0.921,0.61c0.131,0,0.263-0.026,0.391-0.08c0.508-0.216,0.746-0.803,0.53-1.311
		l-0.808-1.905c-0.217-0.51-0.804-0.744-1.312-0.531c-0.508,0.216-0.746,0.803-0.53,1.311L13.881,8.466z" fill="#FFFFFF"/>
	<path d="M26.568,8.897c0.122,0.05,0.249,0.073,0.374,0.073c0.396,0,0.771-0.237,0.928-0.626l0.774-1.918
		c0.206-0.512-0.041-1.095-0.554-1.302c-0.508-0.207-1.095,0.041-1.302,0.553l-0.774,1.918C25.809,8.107,26.056,8.69,26.568,8.897z"
		 fill="#FFFFFF"/>
	<path d="M4,16.887l1.918,0.775c0.123,0.049,0.25,0.073,0.375,0.073c0.396,0,0.77-0.236,0.927-0.625
		c0.207-0.512-0.04-1.095-0.552-1.302L4.75,15.032c-0.512-0.205-1.095,0.041-1.302,0.552C3.241,16.097,3.488,16.68,4,16.887z" fill="#FFFFFF"/>
	<path d="M53.897,20.746c-0.509-6.429-5.892-11.507-12.45-11.507c-3.515,0-6.688,1.464-8.958,3.809
		c-2.758-2.916-6.573-4.595-10.696-4.595C13.636,8.453,7,15.089,7,23.246c0,3.234,1.047,6.269,2.92,8.777
		c-3.408,0.662-6.437,2.696-8.225,5.79c-3.403,5.887-1.521,13.569,4.195,17.125c0.329,0.205,0.694,0.302,1.055,0.302
		c0.668,0,1.321-0.335,1.7-0.944c0.583-0.938,0.296-2.171-0.642-2.755c-3.903-2.428-5.18-7.689-2.846-11.727
		c1.565-2.706,4.56-4.226,7.71-4.031c0.49,1.67,1.466,3.216,2.908,4.404c0.373,0.307,0.823,0.456,1.271,0.456
		c0.577,0,1.149-0.249,1.545-0.729c0.702-0.853,0.58-2.113-0.272-2.815c-0.998-0.822-1.579-1.956-1.751-3.146
		c-0.029-0.241-0.045-0.481-0.046-0.72c0-0.033-0.001-0.066,0-0.1c0.003-0.189,0.016-0.378,0.037-0.565
		c0.12-0.892,0.466-1.764,1.079-2.508c0.903-1.097,2.192-1.72,3.548-1.803c-0.097,0.963-0.047,1.956,0.187,2.95
		c0.217,0.921,1.038,1.542,1.945,1.542c0.152,0,0.306-0.018,0.46-0.054c1.075-0.253,1.742-1.33,1.489-2.405
		c-0.306-1.3-0.087-2.642,0.616-3.777c0.703-1.136,1.806-1.93,3.106-2.235c1.302-0.306,2.642-0.087,3.777,0.616
		c1.136,0.703,1.93,1.806,2.235,3.106c0.253,1.076,1.332,1.74,2.405,1.489c1.075-0.253,1.742-1.33,1.489-2.405
		c-0.55-2.34-1.979-4.326-4.023-5.591c-0.581-0.36-1.195-0.64-1.826-0.857c0.007-0.056,0.004-0.112,0.012-0.168
		c0.011-0.073,0.026-0.145,0.039-0.218c0.035-0.216,0.089-0.427,0.138-0.639c0.948-3.658,4.263-6.372,8.213-6.372
		c4.202,0,7.692,3.067,8.371,7.079c-4.43,0.558-7.871,4.342-7.871,8.921c0,1.104,0.896,2,2,2s2-0.896,2-2c0-2.757,2.243-5,5-5
		s5,2.243,5,5c0,1.104,0.896,2,2,2s2-0.896,2-2C59.947,25.311,57.413,21.971,53.897,20.746z" fill="#FFFFFF"/>
</g>
<g>
</g>
<g>
</g>
<g>
</g>
<g>
</g>
<g>
</g>
<g>
</g>
<g>
</g>
<g>
</g>
<g>
</g>
<g>
</g>
<g>
</g>
<g>
</g>
<g>
</g>
<g>
</g>
<g>
</g>
</svg>
