<?xml version="1.0" encoding="iso-8859-1"?>
<!-- Generator: Adobe Illustrator 19.0.0, SVG Export Plug-In . SVG Version: 6.00 Build 0)  -->
<svg version="1.1" id="Capa_1" xmlns="http://www.w3.org/2000/svg" xmlns:xlink="http://www.w3.org/1999/xlink" x="0px" y="0px"
	 viewBox="0 0 59.947 59.947" style="enable-background:new 0 0 59.947 59.947;" xml:space="preserve">
<g>
	<path d="M55.196,34.499c-0.277-0.479-0.89-0.643-1.366-0.366L51,35.767v-3.268c0-0.552-0.447-1-1-1s-1,0.448-1,1v3.268l-2.83-1.634
		c-0.48-0.277-1.09-0.112-1.366,0.366c-0.276,0.479-0.112,1.09,0.366,1.366L48,37.499l-2.83,1.634
		c-0.479,0.276-0.642,0.888-0.366,1.366c0.186,0.321,0.521,0.5,0.867,0.5c0.169,0,0.342-0.043,0.499-0.134L49,39.232v3.268
		c0,0.552,0.447,1,1,1s1-0.448,1-1v-3.268l2.83,1.634c0.157,0.091,0.329,0.134,0.499,0.134c0.346,0,0.682-0.179,0.867-0.5
		c0.276-0.479,0.112-1.09-0.366-1.366L52,37.499l2.83-1.634C55.309,35.589,55.473,34.978,55.196,34.499z" fill="#FFFFFF"/>
	<path d="M34.196,34.499c-0.277-0.479-0.889-0.644-1.366-0.366L30,35.767v-3.268c0-0.552-0.448-1-1-1s-1,0.448-1,1v3.268
		l-2.83-1.634c-0.48-0.277-1.09-0.112-1.366,0.366c-0.276,0.479-0.112,1.09,0.366,1.366L27,37.499l-2.83,1.634
		c-0.479,0.276-0.642,0.888-0.366,1.366c0.186,0.321,0.521,0.5,0.867,0.5c0.169,0,0.342-0.043,0.499-0.134L28,39.232v3.268
		c0,0.552,0.448,1,1,1s1-0.448,1-1v-3.268l2.83,1.634c0.158,0.091,0.33,0.134,0.499,0.134c0.346,0,0.682-0.179,0.867-0.5
		c0.276-0.479,0.112-1.09-0.366-1.366L31,37.499l2.83-1.634C34.309,35.589,34.472,34.978,34.196,34.499z" fill="#FFFFFF"/>
	<path d="M45.196,47.531c-0.276-0.479-0.889-0.644-1.366-0.366L41,48.798v-3.268c0-0.552-0.448-1-1-1s-1,0.448-1,1v3.268
		l-2.83-1.634c-0.48-0.277-1.09-0.113-1.366,0.366c-0.276,0.479-0.112,1.09,0.366,1.366L38,50.531l-2.83,1.634
		c-0.479,0.276-0.642,0.888-0.366,1.366c0.186,0.321,0.521,0.5,0.867,0.5c0.169,0,0.342-0.043,0.499-0.134L39,52.263v3.268
		c0,0.552,0.448,1,1,1s1-0.448,1-1v-3.268l2.83,1.634c0.158,0.091,0.33,0.134,0.499,0.134c0.346,0,0.682-0.179,0.867-0.5
		c0.276-0.479,0.112-1.09-0.366-1.366L42,50.531l2.83-1.634C45.309,48.621,45.472,48.009,45.196,47.531z" fill="#FFFFFF"/>
	<path d="M53.897,17.006c-0.509-6.429-5.892-11.507-12.45-11.507c-3.281,0-6.263,1.278-8.492,3.354
		c-3.237-3.096-7.399-4.991-11.878-5.35l-1.075-0.086l-0.005,1.078C19.958,12.726,13.23,19.424,5,19.424
		c-1.138,0-2.319-0.145-3.508-0.43l-1.049-0.252l-0.172,1.065C0.089,20.937,0,21.956,0,22.924c0,3.423,0.919,6.775,2.644,9.748
		c-0.345,0.44-0.663,0.906-0.949,1.4c-3.403,5.887-1.521,13.569,4.195,17.125c0.329,0.205,0.694,0.302,1.055,0.302
		c0.668,0,1.321-0.335,1.7-0.944c0.583-0.938,0.296-2.171-0.642-2.755c-3.903-2.428-5.18-7.689-2.846-11.727
		c1.565-2.706,4.56-4.226,7.71-4.031c0.49,1.67,1.466,3.216,2.908,4.404c0.373,0.307,0.823,0.456,1.271,0.456
		c0.577,0,1.149-0.249,1.545-0.729c0.702-0.853,0.58-2.113-0.272-2.815c-2.128-1.752-2.434-4.91-0.681-7.038
		c0.903-1.097,2.192-1.72,3.548-1.803c-0.097,0.963-0.047,1.956,0.187,2.95c0.217,0.921,1.038,1.542,1.945,1.542
		c0.152,0,0.306-0.018,0.46-0.054c1.075-0.253,1.742-1.33,1.489-2.405c-0.306-1.3-0.087-2.642,0.616-3.777
		c0.703-1.136,1.806-1.93,3.106-2.235c1.302-0.306,2.642-0.087,3.777,0.616c1.136,0.703,1.93,1.806,2.235,3.106
		c0.253,1.076,1.332,1.74,2.405,1.489c1.075-0.253,1.742-1.33,1.489-2.405c-0.55-2.34-1.979-4.326-4.023-5.591
		c-0.586-0.363-1.206-0.646-1.842-0.863c0.546-4.164,4.109-7.391,8.419-7.391c4.202,0,7.692,3.067,8.371,7.079
		c-4.43,0.558-7.871,4.342-7.871,8.921c0,1.104,0.896,2,2,2s2-0.896,2-2c0-2.757,2.243-5,5-5s5,2.243,5,5c0,1.104,0.896,2,2,2
		s2-0.896,2-2C59.947,21.571,57.413,18.231,53.897,17.006z" fill="#FFFFFF"/>
</g>
<g>
</g>
<g>
</g>
<g>
</g>
<g>
</g>
<g>
</g>
<g>
</g>
<g>
</g>
<g>
</g>
<g>
</g>
<g>
</g>
<g>
</g>
<g>
</g>
<g>
</g>
<g>
</g>
<g>
</g>
</svg>
