<?xml version="1.0" encoding="iso-8859-1"?>
<!-- Generator: Adobe Illustrator 19.0.0, SVG Export Plug-In . SVG Version: 6.00 Build 0)  -->
<svg version="1.1" id="Capa_1" xmlns="http://www.w3.org/2000/svg" xmlns:xlink="http://www.w3.org/1999/xlink" x="0px" y="0px"
	 viewBox="0 0 60 60" style="enable-background:new 0 0 60 60;" xml:space="preserve">
<path d="M30,0C13.458,0,0,13.458,0,30s13.458,30,30,30s30-13.458,30-30S46.542,0,30,0z M17,22c-2.206,0-4-1.794-4-4s1.794-4,4-4
	s4,1.794,4,4S19.206,22,17,22z M44,17H27v14h13c0.552,0,1,0.447,1,1s-0.448,1-1,1H27v12c0,0.553-0.448,1-1,1s-1-0.447-1-1V16
	c0-0.553,0.448-1,1-1h18c0.552,0,1,0.447,1,1S44.552,17,44,17z" fill="#FFFFFF"/>
<g>
</g>
<g>
</g>
<g>
</g>
<g>
</g>
<g>
</g>
<g>
</g>
<g>
</g>
<g>
</g>
<g>
</g>
<g>
</g>
<g>
</g>
<g>
</g>
<g>
</g>
<g>
</g>
<g>
</g>
</svg>
