<?xml version="1.0" encoding="iso-8859-1"?>
<!-- Generator: Adobe Illustrator 19.0.0, SVG Export Plug-In . SVG Version: 6.00 Build 0)  -->
<svg version="1.1" id="Capa_1" xmlns="http://www.w3.org/2000/svg" xmlns:xlink="http://www.w3.org/1999/xlink" x="0px" y="0px"
	 viewBox="0 0 53 53" style="enable-background:new 0 0 53 53;" xml:space="preserve">
<g>
	<path d="M30.5,43c-0.002,0-0.005,0-0.007,0l-15.482,0.074c-0.11,0-0.222-0.005-0.34-0.018l-0.753-0.071
		C7.796,42.68,3,37.635,3,31.5C3,25.159,8.159,20,14.5,20h26c4.687,0,8.5-3.813,8.5-8.5v-1.485c0-3.583-2.571-6.579-5.982-6.97
		c-0.929-0.105-1.861-0.025-2.77,0.24c-3.703,1.09-5.829,4.989-4.74,8.692c0.234,0.795,1.07,1.245,1.863,1.016
		c0.794-0.234,1.249-1.068,1.016-1.863c-0.302-1.024-0.187-2.105,0.325-3.044c0.512-0.938,1.358-1.621,2.383-1.922
		c0.519-0.152,1.048-0.201,1.582-0.139C44.54,6.239,46,7.991,46,10.015V11.5c0,3.032-2.468,5.5-5.5,5.5h-26
		C6.505,17,0,23.505,0,31.5c0,7.735,6.048,14.097,13.698,14.477l0.674,0.065c0.212,0.021,0.425,0.032,0.646,0.032L30.507,46
		c0.829-0.004,1.497-0.679,1.493-1.507C31.996,43.667,31.325,43,30.5,43z" fill="#FFFFFF" />
	<path d="M43.597,33.098H15.573l-0.928-0.091L14.5,33c-0.827,0-1.5-0.673-1.5-1.5c0-0.827,0.673-1.5,1.5-1.5h26
		c0.828,0,1.5-0.672,1.5-1.5S41.328,27,40.5,27h-26c-2.481,0-4.5,2.019-4.5,4.5c0,2.454,1.976,4.456,4.42,4.499l0.935,0.092
		l28.242,0.007C47.128,36.098,50,38.97,50,42.5c0,0.086,0.011,0.168,0.025,0.25C50.011,42.832,50,42.914,50,43c0,2.206-1.794,4-4,4
		s-4-1.794-4-4c0-0.828-0.672-1.5-1.5-1.5S39,42.172,39,43c0,3.859,3.141,7,7,7s7-3.141,7-7c0-0.086-0.011-0.168-0.025-0.25
		C52.989,42.668,53,42.586,53,42.5C53,37.315,48.781,33.098,43.597,33.098z" fill="#FFFFFF" />
	<path d="M40.5,22h-26C9.262,22,5,26.262,5,31.5c0,5.134,4.017,9.303,9.053,9.487l0.814,0.08l28.729,0.03h0.001
		c0.828,0,1.499-0.671,1.5-1.499s-0.67-1.5-1.499-1.501l-28.514-0.023l-0.83-0.079C10.747,37.865,8,35.013,8,31.5
		c0-3.584,2.916-6.5,6.5-6.5h26C47.393,25,53,19.393,53,12.5c0-0.828-0.672-1.5-1.5-1.5S50,11.672,50,12.5
		C50,17.738,45.738,22,40.5,22z" fill="#FFFFFF" />
</g>
<g>
</g>
<g>
</g>
<g>
</g>
<g>
</g>
<g>
</g>
<g>
</g>
<g>
</g>
<g>
</g>
<g>
</g>
<g>
</g>
<g>
</g>
<g>
</g>
<g>
</g>
<g>
</g>
<g>
</g>
</svg>
