<?xml version="1.0" encoding="iso-8859-1"?>
<!-- Generator: Adobe Illustrator 19.0.0, SVG Export Plug-In . SVG Version: 6.00 Build 0)  -->
<svg version="1.1" id="Capa_1" xmlns="http://www.w3.org/2000/svg" xmlns:xlink="http://www.w3.org/1999/xlink" x="0px" y="0px"
	 viewBox="0 0 59.502 59.502" style="enable-background:new 0 0 59.502 59.502;" xml:space="preserve">
<g>
	<path d="M37.333,27.543c1.057-0.253,1.713-1.33,1.464-2.405c-0.541-2.34-1.947-4.326-3.957-5.591
		c-0.577-0.363-1.186-0.646-1.812-0.863c0.537-4.164,4.041-7.391,8.28-7.391c4.132,0,7.565,3.067,8.233,7.079
		c-4.357,0.558-7.741,4.342-7.741,8.921c0,1.104,0.881,2,1.967,2c1.086,0,1.967-0.896,1.967-2c0-2.757,2.206-5,4.917-5
		s4.917,2.243,4.917,5c0,1.104,0.881,2,1.967,2c1.086,0,1.967-0.896,1.967-2c0-3.928-2.492-7.268-5.95-8.493
		C53.051,12.37,47.757,7.292,41.308,7.292c-3.615,0-6.862,1.602-9.111,4.137c-3.152-2.972-7.164-4.783-11.47-5.134L19.67,6.209
		l-0.005,1.078c-0.038,8.232-6.654,14.929-14.748,14.929c-1.119,0-2.281-0.145-3.45-0.43l-1.031-0.252L0.267,22.6
		C0.087,23.73,0,24.75,0,25.717c0,3.386,0.884,6.702,2.544,9.65c-0.108,0.169-0.231,0.323-0.331,0.499
		c-3.347,5.887-1.495,13.569,4.126,17.125c0.324,0.205,0.682,0.302,1.037,0.302c0.657,0,1.299-0.335,1.672-0.944
		c0.574-0.938,0.291-2.171-0.631-2.755c-3.839-2.428-5.094-7.689-2.799-11.727c1.539-2.706,4.484-4.226,7.583-4.031
		c0.482,1.67,1.442,3.216,2.86,4.404c0.366,0.307,0.809,0.456,1.25,0.456c0.567,0,1.13-0.249,1.519-0.729
		c0.691-0.853,0.57-2.113-0.268-2.815c-2.093-1.752-2.393-4.91-0.67-7.038c0.888-1.097,2.156-1.72,3.489-1.803
		c-0.095,0.963-0.046,1.956,0.184,2.95c0.213,0.921,1.021,1.542,1.913,1.542c0.149,0,0.301-0.018,0.452-0.054
		c1.057-0.253,1.713-1.33,1.464-2.405c-0.301-1.3-0.085-2.642,0.606-3.777c0.691-1.136,1.776-1.93,3.055-2.235
		c1.28-0.306,2.598-0.087,3.714,0.616c1.117,0.703,1.898,1.806,2.198,3.106C35.217,27.13,36.278,27.794,37.333,27.543z" fill="#FFFFFF"/>
	<path d="M54.414,43.542c-0.804-4.127-4.389-7.25-8.68-7.25c-4.88,0-8.851,4.038-8.851,9c0,1.104,0.881,2,1.967,2
		c1.086,0,1.967-0.896,1.967-2c0-2.757,2.206-5,4.917-5c2.155,0,3.971,1.426,4.633,3.392c-2.692,0.951-4.633,3.55-4.633,6.608
		c0,1.104,0.881,2,1.967,2c1.086,0,1.967-0.896,1.967-2c0-1.654,1.323-3,2.95-3c1.627,0,2.95,1.346,2.95,3c0,1.104,0.881,2,1.967,2
		c1.086,0,1.967-0.896,1.967-2C59.502,47.065,57.341,44.349,54.414,43.542z" fill="#FFFFFF"/>
</g>
<g>
</g>
<g>
</g>
<g>
</g>
<g>
</g>
<g>
</g>
<g>
</g>
<g>
</g>
<g>
</g>
<g>
</g>
<g>
</g>
<g>
</g>
<g>
</g>
<g>
</g>
<g>
</g>
<g>
</g>
</svg>
