<?xml version="1.0" encoding="iso-8859-1"?>
<!-- Generator: Adobe Illustrator 19.0.0, SVG Export Plug-In . SVG Version: 6.00 Build 0)  -->
<svg version="1.1" id="Capa_1" xmlns="http://www.w3.org/2000/svg" xmlns:xlink="http://www.w3.org/1999/xlink" x="0px" y="0px"
	 viewBox="0 0 52.194 52.194" style="enable-background:new 0 0 52.194 52.194;" xml:space="preserve">
<g>
	<path d="M25.11,30.827c-0.725-0.4-1.638-0.14-2.039,0.585l-2.057,3.711c-0.402,0.725-0.141,1.638,0.584,2.039
		c0.23,0.127,0.48,0.188,0.727,0.188c0.527,0,1.039-0.279,1.313-0.773l2.057-3.711C26.096,32.142,25.835,31.229,25.11,30.827z" fill="#FFFFFF"/>
	<path d="M29.224,23.406c-0.725-0.4-1.639-0.139-2.039,0.584l-2.058,3.711c-0.402,0.725-0.141,1.638,0.584,2.04
		c0.23,0.127,0.48,0.188,0.727,0.188c0.527,0,1.039-0.279,1.313-0.773l2.058-3.711C30.211,24.721,29.949,23.808,29.224,23.406z" fill="#FFFFFF"/>
	<path d="M28.552,39.203c-0.725-0.4-1.639-0.141-2.039,0.584l-2.058,3.71c-0.402,0.725-0.141,1.638,0.584,2.04
		c0.23,0.127,0.48,0.188,0.727,0.188c0.527,0,1.039-0.279,1.313-0.773l2.058-3.71C29.539,40.518,29.277,39.605,28.552,39.203z" fill="#FFFFFF"/>
	<path d="M32.666,31.782c-0.724-0.4-1.638-0.14-2.039,0.585l-2.057,3.71c-0.402,0.725-0.141,1.637,0.584,2.039
		c0.23,0.127,0.48,0.188,0.727,0.188c0.527,0,1.039-0.279,1.313-0.773l2.057-3.71C33.652,33.096,33.39,32.184,32.666,31.782z" fill="#FFFFFF"/>
	<path d="M17.554,29.873c-0.724-0.401-1.638-0.14-2.039,0.585l-2.057,3.71c-0.402,0.725-0.141,1.637,0.584,2.039
		c0.23,0.127,0.48,0.188,0.727,0.188c0.527,0,1.039-0.279,1.313-0.773l2.057-3.71C18.541,31.188,18.279,30.275,17.554,29.873z" fill="#FFFFFF"/>
	<path d="M13.441,37.295c-0.725-0.401-1.638-0.14-2.039,0.584l-2.058,3.71c-0.402,0.725-0.141,1.638,0.584,2.04
		c0.23,0.127,0.48,0.188,0.727,0.188c0.527,0,1.039-0.279,1.313-0.773l2.058-3.71C14.427,38.61,14.166,37.697,13.441,37.295z" fill="#FFFFFF"/>
	<path d="M20.997,38.249c-0.724-0.4-1.638-0.139-2.039,0.584L16.9,42.544c-0.402,0.725-0.141,1.638,0.584,2.04
		c0.23,0.127,0.48,0.188,0.727,0.188c0.527,0,1.039-0.279,1.313-0.773l2.058-3.711C21.983,39.564,21.721,38.651,20.997,38.249z" fill="#FFFFFF"/>
	<path d="M16.882,45.67c-0.724-0.4-1.638-0.14-2.039,0.585l-2.057,3.711c-0.402,0.725-0.141,1.638,0.584,2.039
		c0.23,0.127,0.48,0.188,0.727,0.188c0.527,0,1.039-0.279,1.313-0.773l2.057-3.711C17.869,46.985,17.607,46.072,16.882,45.67z" fill="#FFFFFF"/>
	<path d="M20.195,28.201l2.057-3.71c0.402-0.725,0.141-1.637-0.584-2.039c-0.725-0.4-1.639-0.14-2.039,0.585l-2.057,3.71
		c-0.402,0.725-0.141,1.637,0.584,2.039c0.23,0.127,0.48,0.188,0.727,0.188C19.41,28.975,19.922,28.696,20.195,28.201z" fill="#FFFFFF"/>
	<path d="M40.221,32.736c-0.725-0.4-1.639-0.14-2.039,0.585l-2.057,3.711c-0.402,0.725-0.141,1.638,0.584,2.039
		c0.23,0.127,0.48,0.188,0.727,0.188c0.527,0,1.039-0.279,1.313-0.773l2.057-3.711C41.208,34.051,40.946,33.137,40.221,32.736z" fill="#FFFFFF"/>
	<path d="M44.336,25.315c-0.725-0.4-1.638-0.14-2.039,0.584l-2.058,3.711c-0.402,0.725-0.141,1.638,0.584,2.04
		c0.23,0.127,0.48,0.188,0.727,0.188c0.527,0,1.039-0.279,1.313-0.773l2.058-3.711C45.322,26.63,45.06,25.717,44.336,25.315z" fill="#FFFFFF"/>
	<path d="M33.939,14.898c0.23,0.127,0.48,0.188,0.727,0.188c0.527,0,1.039-0.279,1.313-0.773l2.058-3.711
		c0.402-0.725,0.141-1.638-0.584-2.04c-0.724-0.4-1.638-0.139-2.039,0.584l-2.058,3.711C32.953,13.583,33.214,14.496,33.939,14.898z
		" fill="#FFFFFF"/>
	<path d="M38.053,7.477c0.23,0.127,0.48,0.188,0.727,0.188c0.527,0,1.039-0.279,1.313-0.773l2.057-3.711
		c0.402-0.725,0.141-1.638-0.584-2.039c-0.725-0.4-1.638-0.14-2.039,0.585l-2.057,3.711C37.067,6.162,37.329,7.075,38.053,7.477z" fill="#FFFFFF"/>
	<path d="M36.78,24.361c-0.724-0.4-1.638-0.14-2.039,0.584l-2.058,3.71c-0.402,0.725-0.141,1.638,0.584,2.04
		c0.23,0.127,0.48,0.188,0.727,0.188c0.527,0,1.039-0.279,1.313-0.773l2.058-3.71C37.766,25.676,37.505,24.762,36.78,24.361z" fill="#FFFFFF"/>
	<path d="M38.854,17.524l-2.057,3.71c-0.402,0.725-0.141,1.637,0.584,2.039c0.23,0.127,0.48,0.188,0.727,0.188
		c0.527,0,1.039-0.279,1.313-0.773l2.057-3.71c0.402-0.725,0.141-1.637-0.584-2.039C40.169,16.539,39.255,16.8,38.854,17.524z" fill="#FFFFFF"/>
	<path d="M26.383,13.944c0.23,0.127,0.48,0.188,0.727,0.188c0.527,0,1.039-0.279,1.313-0.773l2.057-3.71
		c0.402-0.725,0.141-1.637-0.584-2.039c-0.725-0.4-1.638-0.14-2.039,0.585l-2.057,3.71C25.397,12.629,25.659,13.542,26.383,13.944z"
		 fill="#FFFFFF"/>
	<path d="M23.743,15.615l-2.057,3.71c-0.402,0.725-0.141,1.637,0.584,2.039c0.23,0.127,0.48,0.188,0.727,0.188
		c0.527,0,1.039-0.279,1.313-0.773l2.057-3.71c0.402-0.725,0.141-1.637-0.584-2.039C25.057,14.63,24.144,14.891,23.743,15.615z" fill="#FFFFFF"/>
	<path d="M9.897,32.195l2.057-3.711c0.402-0.725,0.141-1.638-0.584-2.039c-0.724-0.401-1.638-0.14-2.039,0.585l-2.057,3.711
		c-0.402,0.725-0.141,1.638,0.584,2.039c0.23,0.127,0.48,0.188,0.727,0.188C9.112,32.969,9.624,32.689,9.897,32.195z" fill="#FFFFFF"/>
	<path d="M11.971,25.359c0.23,0.127,0.48,0.188,0.727,0.188c0.527,0,1.039-0.279,1.313-0.773l2.058-3.711
		c0.402-0.725,0.141-1.638-0.584-2.04c-0.724-0.401-1.638-0.14-2.039,0.584l-2.058,3.711C10.985,24.044,11.247,24.957,11.971,25.359
		z" fill="#FFFFFF"/>
	<path d="M20.199,10.516c0.23,0.127,0.48,0.188,0.727,0.188c0.527,0,1.039-0.279,1.313-0.773l2.058-3.711
		c0.402-0.725,0.141-1.638-0.584-2.04c-0.725-0.4-1.638-0.14-2.039,0.584l-2.058,3.711C19.213,9.201,19.474,10.114,20.199,10.516z"
		 fill="#FFFFFF"/>
	<path d="M16.086,17.937c0.23,0.127,0.48,0.188,0.727,0.188c0.527,0,1.039-0.279,1.313-0.773l2.057-3.711
		c0.402-0.725,0.141-1.638-0.584-2.039c-0.725-0.4-1.638-0.14-2.039,0.585l-2.057,3.711C15.099,16.623,15.361,17.536,16.086,17.937z
		" fill="#FFFFFF"/>
	<path d="M31.865,21.735l2.057-3.711c0.402-0.725,0.141-1.638-0.584-2.039c-0.724-0.4-1.638-0.14-2.039,0.585l-2.057,3.711
		c-0.402,0.725-0.141,1.638,0.584,2.039c0.23,0.127,0.48,0.188,0.727,0.188C31.08,22.508,31.591,22.229,31.865,21.735z" fill="#FFFFFF"/>
	<path d="M30.498,6.522c0.23,0.127,0.48,0.188,0.727,0.188c0.527,0,1.039-0.279,1.312-0.773l2.057-3.71
		c0.402-0.725,0.141-1.637-0.584-2.039c-0.725-0.4-1.639-0.14-2.039,0.585l-2.057,3.71C29.511,5.208,29.773,6.12,30.498,6.522z" fill="#FFFFFF"/>
</g>
<g>
</g>
<g>
</g>
<g>
</g>
<g>
</g>
<g>
</g>
<g>
</g>
<g>
</g>
<g>
</g>
<g>
</g>
<g>
</g>
<g>
</g>
<g>
</g>
<g>
</g>
<g>
</g>
<g>
</g>
</svg>
