<?xml version="1.0" encoding="iso-8859-1"?>
<!-- Generator: Adobe Illustrator 19.0.0, SVG Export Plug-In . SVG Version: 6.00 Build 0)  -->
<svg version="1.1" id="Capa_1" xmlns="http://www.w3.org/2000/svg" xmlns:xlink="http://www.w3.org/1999/xlink" x="0px" y="0px"
	 viewBox="0 0 59.947 59.947" style="enable-background:new 0 0 59.947 59.947;" xml:space="preserve">
<g>
	<path d="M32.293,45.308l-3,3c-0.391,0.391-0.391,1.023,0,1.414c0.195,0.195,0.451,0.293,0.707,0.293s0.512-0.098,0.707-0.293l3-3
		c0.391-0.391,0.391-1.023,0-1.414S32.684,44.917,32.293,45.308z" fill="#FFFFFF"/>
	<path d="M26.293,51.308l-3,3c-0.391,0.391-0.391,1.023,0,1.414c0.195,0.195,0.451,0.293,0.707,0.293s0.512-0.098,0.707-0.293l3-3
		c0.391-0.391,0.391-1.023,0-1.414S26.684,50.917,26.293,51.308z" fill="#FFFFFF"/>
	<path d="M46.293,39.308l-3,3c-0.391,0.391-0.391,1.023,0,1.414c0.195,0.195,0.451,0.293,0.707,0.293s0.512-0.098,0.707-0.293l3-3
		c0.391-0.391,0.391-1.023,0-1.414S46.684,38.917,46.293,39.308z" fill="#FFFFFF"/>
	<path d="M40.293,45.308l-3,3c-0.391,0.391-0.391,1.023,0,1.414c0.195,0.195,0.451,0.293,0.707,0.293s0.512-0.098,0.707-0.293l3-3
		c0.391-0.391,0.391-1.023,0-1.414S40.684,44.917,40.293,45.308z" fill="#FFFFFF"/>
	<path d="M31.707,39.308c-0.391-0.391-1.023-0.391-1.414,0l-3,3c-0.391,0.391-0.391,1.023,0,1.414
		c0.195,0.195,0.451,0.293,0.707,0.293s0.512-0.098,0.707-0.293l3-3C32.098,40.331,32.098,39.699,31.707,39.308z" fill="#FFFFFF"/>
	<path d="M39.707,39.308c-0.391-0.391-1.023-0.391-1.414,0l-3,3c-0.391,0.391-0.391,1.023,0,1.414
		c0.195,0.195,0.451,0.293,0.707,0.293s0.512-0.098,0.707-0.293l3-3C40.098,40.331,40.098,39.699,39.707,39.308z" fill="#FFFFFF"/>
	<path d="M25.707,45.308c-0.391-0.391-1.023-0.391-1.414,0l-3,3c-0.391,0.391-0.391,1.023,0,1.414
		c0.195,0.195,0.451,0.293,0.707,0.293s0.512-0.098,0.707-0.293l3-3C26.098,46.331,26.098,45.699,25.707,45.308z" fill="#FFFFFF"/>
	<path d="M53.897,17.521c-0.509-6.429-5.892-11.507-12.45-11.507c-3.281,0-6.263,1.278-8.492,3.354
		c-3.237-3.096-7.399-4.991-11.878-5.35l-1.075-0.086L19.996,5.01C19.958,13.242,13.23,19.939,5,19.939
		c-1.138,0-2.319-0.145-3.508-0.43l-1.049-0.252l-0.172,1.065C0.089,21.453,0,22.472,0,23.439c0,3.423,0.919,6.775,2.644,9.748
		c-0.345,0.44-0.663,0.906-0.949,1.4c-3.403,5.887-1.521,13.569,4.195,17.125c0.329,0.205,0.694,0.302,1.055,0.302
		c0.668,0,1.321-0.335,1.7-0.944c0.583-0.938,0.296-2.171-0.642-2.755C4.1,45.888,2.824,40.627,5.158,36.59
		c1.565-2.706,4.56-4.226,7.71-4.031c0.49,1.67,1.466,3.216,2.908,4.404c0.373,0.307,0.823,0.456,1.271,0.456
		c0.577,0,1.149-0.249,1.545-0.729c0.702-0.853,0.58-2.113-0.272-2.815c-2.128-1.752-2.434-4.91-0.681-7.038
		c0.903-1.097,2.192-1.72,3.548-1.803c-0.097,0.963-0.047,1.956,0.187,2.95c0.217,0.921,1.038,1.542,1.945,1.542
		c0.152,0,0.306-0.018,0.46-0.054c1.075-0.253,1.742-1.33,1.489-2.405c-0.306-1.3-0.087-2.642,0.616-3.777
		c0.703-1.136,1.806-1.93,3.106-2.235c1.302-0.306,2.642-0.087,3.777,0.616c1.136,0.703,1.93,1.806,2.235,3.106
		c0.253,1.076,1.332,1.74,2.405,1.489c1.075-0.253,1.742-1.33,1.489-2.405c-0.55-2.34-1.979-4.326-4.023-5.591
		c-0.586-0.363-1.206-0.646-1.842-0.863c0.546-4.164,4.109-7.391,8.419-7.391c4.202,0,7.692,3.067,8.371,7.079
		c-4.43,0.558-7.871,4.342-7.871,8.921c0,1.104,0.896,2,2,2s2-0.896,2-2c0-2.757,2.243-5,5-5s5,2.243,5,5c0,1.104,0.896,2,2,2
		s2-0.896,2-2C59.947,22.086,57.413,18.746,53.897,17.521z" fill="#FFFFFF"/>
</g>
<g>
</g>
<g>
</g>
<g>
</g>
<g>
</g>
<g>
</g>
<g>
</g>
<g>
</g>
<g>
</g>
<g>
</g>
<g>
</g>
<g>
</g>
<g>
</g>
<g>
</g>
<g>
</g>
<g>
</g>
</svg>
