<?xml version="1.0" encoding="iso-8859-1"?>
<!-- Generator: Adobe Illustrator 19.0.0, SVG Export Plug-In . SVG Version: 6.00 Build 0)  -->
<svg version="1.1" id="Capa_1" xmlns="http://www.w3.org/2000/svg" xmlns:xlink="http://www.w3.org/1999/xlink" x="0px" y="0px"
	 viewBox="0 0 60 60" style="enable-background:new 0 0 60 60;" xml:space="preserve">
<path d="M37,38.261V35h-3c-0.552,0-1-0.447-1-1s0.448-1,1-1h3v-3h-3c-0.552,0-1-0.447-1-1s0.448-1,1-1h3v-3h-3c-0.552,0-1-0.447-1-1
	s0.448-1,1-1h3v-3h-3c-0.552,0-1-0.447-1-1s0.448-1,1-1h3v-3h-3c-0.552,0-1-0.447-1-1s0.448-1,1-1h3v-3h-3c-0.552,0-1-0.447-1-1
	s0.448-1,1-1h3V7c0-3.859-3.14-7-7-7c-3.519,0-6.432,2.614-6.92,6H26c0.552,0,1,0.447,1,1s-0.448,1-1,1h-3v3h3c0.552,0,1,0.447,1,1
	s-0.448,1-1,1h-3v3h3c0.552,0,1,0.447,1,1s-0.448,1-1,1h-3v3h3c0.552,0,1,0.447,1,1s-0.448,1-1,1h-3v3h3c0.552,0,1,0.447,1,1
	s-0.448,1-1,1h-3v3h3c0.552,0,1,0.447,1,1s-0.448,1-1,1h-3v3h3c0.552,0,1,0.447,1,1s-0.448,1-1,1h-3v0.261
	c-3.545,2.546-5.421,6.769-4.919,11.151c0.628,5.482,5.066,9.903,10.551,10.512C29.087,59.974,29.547,60,30,60
	c3.205,0,6.219-1.249,8.485-3.515C40.752,54.219,42,51.205,42,48C42,44.118,40.141,40.518,37,38.261z M30,53c-2.761,0-5-2.239-5-5
	c0-2.419,1.718-4.436,4-4.899V22c0-0.553,0.448-1,1-1s1,0.447,1,1v21.101c2.282,0.463,4,2.48,4,4.899C35,50.761,32.761,53,30,53z" fill="#FFFFFF"/>
<g>
</g>
<g>
</g>
<g>
</g>
<g>
</g>
<g>
</g>
<g>
</g>
<g>
</g>
<g>
</g>
<g>
</g>
<g>
</g>
<g>
</g>
<g>
</g>
<g>
</g>
<g>
</g>
<g>
</g>
</svg>
