<?xml version="1.0" encoding="iso-8859-1"?>
<!-- Generator: Adobe Illustrator 18.0.0, SVG Export Plug-In . SVG Version: 6.00 Build 0)  -->
<!DOCTYPE svg PUBLIC "-//W3C//DTD SVG 1.1//EN" "http://www.w3.org/Graphics/SVG/1.1/DTD/svg11.dtd">
<svg xmlns="http://www.w3.org/2000/svg" xmlns:xlink="http://www.w3.org/1999/xlink" version="1.1" id="Capa_1" x="0px" y="0px" viewBox="0 0 297 297" style="enable-background:new 0 0 297 297;" xml:space="preserve" width="512px" height="512px">
<g>
	<path d="M26.927,220.203c-14.179,0-25.714,11.535-25.714,25.715v25.367c0,14.18,11.535,25.715,25.714,25.715h219.17   c14.18,0,25.715-11.535,25.715-25.715v-25.367c0-14.18-11.535-25.715-25.715-25.715H26.927z" fill="#FFFFFF"/>
	<path d="M259.756,0c-19.869,0-36.033,16.176-36.033,36.059c0,19.879,16.164,36.053,36.033,36.053   c19.867,0,36.031-16.174,36.031-36.053C295.787,16.176,279.623,0,259.756,0z" fill="#FFFFFF"/>
	<path d="M254.742,201.869c0-35.557-16.717-59.422-31.467-80.48c-5.799-8.277-11.275-16.098-15.179-23.91   c-4.151-8.305-4.015-15.09,0.432-21.352c2.409-3.395,5.514-5.83,7.5-7.178c-6.905-9.164-11.007-20.557-11.007-32.891   c0-7.385,1.478-14.432,4.137-20.865c-17.461,0-63.835,2.574-106.147,26.418C78.215,55.584,58.578,74.613,44.642,98.174   c-16.731,28.283-25.214,63.172-25.214,103.695H254.742z" fill="#FFFFFF"/>
</g>
<g>
</g>
<g>
</g>
<g>
</g>
<g>
</g>
<g>
</g>
<g>
</g>
<g>
</g>
<g>
</g>
<g>
</g>
<g>
</g>
<g>
</g>
<g>
</g>
<g>
</g>
<g>
</g>
<g>
</g>
</svg>
